<?xml version="1.0" standalone="no"?>
<!DOCTYPE svg PUBLIC "-//W3C//DTD SVG 20010904//EN"
 "http://www.w3.org/TR/2001/REC-SVG-20010904/DTD/svg10.dtd">
<svg version="1.0" xmlns="http://www.w3.org/2000/svg"
 width="927.000000pt" height="927.000000pt" viewBox="0 0 927.000000 927.000000"
 preserveAspectRatio="xMidYMid meet">
<metadata>
Created by potrace 1.11, written by Peter Selinger 2001-2013
</metadata>
<g transform="translate(0.000000,927.000000) scale(0.100000,-0.100000)"
fill="#000000" stroke="none">
<path d="M75 9262 l-30 -3 0 -2709 0 -2710 476 0 476 0 1 838 c0 460 1 851 2
867 0 19 15 46 40 75 21 25 111 131 201 235 89 105 176 207 195 228 l33 38
241 -303 c133 -167 249 -312 258 -323 9 -11 69 -85 132 -165 63 -80 120 -152
127 -160 7 -8 132 -166 279 -350 146 -184 282 -355 302 -378 20 -24 43 -54 51
-65 8 -12 28 -38 45 -58 17 -20 38 -44 46 -55 63 -80 207 -261 215 -270 5 -6
35 -43 65 -83 l55 -71 588 0 588 0 -93 113 c-104 128 -535 649 -613 742 -27
33 -68 82 -90 109 -22 27 -69 84 -103 125 -69 82 -74 88 -142 171 -25 30 -53
64 -62 75 -34 41 -431 522 -466 565 -20 24 -60 72 -87 105 -28 33 -104 125
-170 205 -66 80 -127 154 -136 165 -10 11 -45 54 -79 95 -34 41 -78 95 -98
119 -174 209 -221 267 -222 272 0 5 31 43 129 154 14 17 51 59 81 95 30 36 60
70 65 76 6 6 33 37 60 70 43 50 341 396 495 574 26 30 175 204 330 385 255
297 448 521 475 551 11 12 20 23 240 279 259 302 253 295 296 343 29 31 29 32
7 33 -13 0 -279 1 -592 1 l-568 1 -33 -39 c-40 -47 -1023 -1246 -1144 -1394
-47 -58 -90 -110 -96 -116 -5 -6 -26 -30 -45 -54 -19 -24 -133 -163 -253 -309
-120 -146 -228 -278 -240 -293 -242 -296 -302 -367 -305 -363 -3 3 -5 581 -5
1285 l0 1280 -21 1 c-83 2 -877 3 -901 1z"/>
<path d="M5023 2718 l0 -2708 41 -1 c46 -1 898 -1 906 0 3 1 5 455 5 1011 l0
1010 472 0 472 0 12 -22 c15 -29 320 -544 369 -623 20 -33 39 -64 41 -70 2 -5
33 -59 69 -118 36 -59 72 -120 81 -135 9 -15 60 -101 115 -192 54 -91 104
-174 110 -185 12 -22 150 -255 290 -490 50 -83 93 -158 97 -168 4 -10 17 -17
34 -18 185 -4 1064 -1 1069 4 4 4 -18 46 -48 94 -58 91 -442 709 -556 893 -35
58 -75 121 -87 140 -13 19 -46 73 -75 120 -29 47 -62 101 -75 120 -57 89 -465
749 -465 753 0 3 19 8 43 12 191 31 432 135 610 262 280 202 494 525 572 868
43 187 52 280 50 485 -2 159 -5 184 -31 330 -78 431 -308 793 -655 1031 -68
47 -69 47 -169 101 -150 79 -366 150 -545 177 -38 6 -86 13 -105 17 -19 4
-623 8 -1341 9 l-1307 2 1 -2709z m2432 1860 c11 -3 36 -8 55 -12 321 -68 571
-289 653 -576 24 -87 29 -117 32 -240 12 -391 -198 -696 -566 -823 -155 -54
-176 -55 -944 -53 l-710 1 0 858 0 858 730 -4 c401 -3 739 -7 750 -9z"/>
</g>
</svg>
